<svg width="45" height="45" viewBox="0 0 45 45" fill="none" xmlns="http://www.w3.org/2000/svg">
<path fill-rule="evenodd" clip-rule="evenodd" d="M24.75 2.25398V31.4995H42.7453C44.5273 31.4995 45.6005 29.5307 44.6398 28.0321L28.8922 1.03665C27.6772 -0.851166 24.75 0.0083991 24.75 2.25398ZM16.128 15.182L6.83108 28.0014C5.83433 29.4977 6.90759 31.4995 8.70533 31.4995H20.25V16.4312C20.25 14.2059 17.3633 13.3302 16.128 15.182ZM44.759 39.2561L42.509 43.7563C42.1288 44.5191 41.3481 45 40.4976 45H5.62959C4.92085 45 4.25485 44.6672 3.8296 44.1002L0.454625 39.6C-0.659117 38.1172 0.400632 35.9997 2.25462 35.9997H42.7476C44.4193 35.9997 45.5083 37.7621 44.759 39.2561Z" fill="white"/>
</svg>
